<?xml version="1.0" encoding="utf-8"?>
<!-- Generator: Adobe Illustrator 25.3.1, SVG Export Plug-In . SVG Version: 6.00 Build 0)  -->
<svg version="1.1" id="Слой_1" xmlns="http://www.w3.org/2000/svg" xmlns:xlink="http://www.w3.org/1999/xlink" x="0px" y="0px"
	 viewBox="0 0 363.7 95.8" style="enable-background:new 0 0 363.7 95.8;" xml:space="preserve">
<style type="text/css">
	.st0{fill:#F2F2F2;}
	.st1{fill:#F2F2F4;}
	.st2{fill:#0D0D0D;}
</style>
<g>
	<path class="st0" d="M309.1,66.5v28.9h-8.2V66.1c0-1.2-0.2-2.3-0.6-3.5c-0.1-0.3-0.3-0.7-0.4-1c-0.3-0.7-0.7-1.3-1.2-1.9
		c-0.6-0.8-1.4-1.5-2.3-2c-0.9-0.5-1.9-0.7-2.9-0.7c-1.1,0-2.2,0.2-3.2,0.5c-1.1,0.4-2.2,0.8-3.3,1.4c-1.1,0.6-2.1,1.2-3,2
		c-0.8,0.6-1.4,1.3-2,2v32.4h-8.2c0-19.9,0-39.8,0-59.6v-2.6l5.9-2.4h2.3v5c0,7.3,0,14.6,0,21.8c1-0.9,2-1.7,3.1-2.5
		c1.2-0.9,2.5-1.7,3.8-2.3c2.4-1,5-1.5,7.6-1.5h1c0.8,0,1.6,0.1,2.4,0.3c0.4,0.1,0.9,0.2,1.3,0.4c2.5,0.9,4.7,2.6,6.2,4.8
		c0.5,0.6,0.8,1.4,1.1,2.1c0.2,0.5,0.3,1,0.4,1.5C309,62.5,309.1,64.5,309.1,66.5z"/>
	<path class="st0" d="M103.8,87.4v4.3c-0.4,0.2-0.8,0.5-1.2,0.7c-1,0.6-2.1,1.2-3.1,1.6l0,0l-0.8,0.3c-1.8,0.8-3.8,1.1-5.8,1.1h-0.2
		c-3.3-0.1-5.6-1.3-6.9-3.7c-0.4-0.6-0.7-1.3-0.9-2l0,0c-0.7-2.3-1.1-4.7-1.1-7.1c0-0.3,0-0.7,0-1v-0.2c0-0.3,0-0.6,0-0.8
		c-0.1-8.2-0.1-16.3,0.1-24.2h-6.8V55l6.6-1.8L84,40.3l5.7-2.2h2.1c0.1,5,0.1,10.1,0.2,15.1h9.1v3.2h-9.4l-0.1,22.4l0,0
		c0,0.7,0,1.3,0.1,1.9c0.1,1.4,0.4,2.9,0.9,4.2c0.4,1,1,1.9,1.9,2.6c0.2,0.1,0.4,0.2,0.6,0.3c0.9,0.4,1.9,0.6,2.9,0.6
		c1,0,2-0.1,3-0.2c0.4,0,0.8-0.1,1.2-0.2C102.7,87.8,103.3,87.7,103.8,87.4z"/>
	<path class="st0" d="M270.8,95.4H260l-15.9-19.2c0,6.4,0,12.8-0.1,19.2h-7.9V33.3l5.9-2.5h2.3c0,8.4,0,16.7,0,25.1
		c0,6.6,0,13.3,0,19.9l12-20.8l7.7-2.3h0.5l-12,20.9l0,0l0,0L270.8,95.4z"/>
	<polygon class="st1" points="244.3,30.8 244.3,30.8 242.3,30.8 	"/>
	<path class="st0" d="M228.3,91.7c0.1-0.1,0.2-0.2,0.3-0.3C228.5,91.5,228.4,91.6,228.3,91.7L228.3,91.7z"/>
	<path class="st0" d="M36.5,94.6c-0.5-0.3-0.9-0.6-1.3-0.9c-0.3-0.2-0.6-0.5-0.8-0.8c-0.2-0.2-0.4-0.4-0.5-0.7
		c-0.7-1-1.1-2.2-1.1-3.5l0.1-26.2c0-1.6-0.2-3.1-0.7-4.6c-0.4-1.4-1.2-2.6-2.3-3.6c-1.3-1.1-2.8-1.8-4.4-2.3
		c-2.2-0.6-4.5-0.9-6.7-0.8c-2,0-4.1,0.2-6.1,0.8c-1.8,0.5-3.6,1.2-5.2,2.2c-1.5,0.9-2.8,2.2-3.8,3.6c-1,1.4-1.6,3.1-1.8,4.9h7.5
		c0.2-1.2,0.5-2.3,1-3.4c0.4-1,1-1.9,1.8-2.7c0.7-0.8,1.6-1.4,2.6-1.9c1-0.5,2.1-0.7,3.2-0.7c1.1-0.1,2.1,0.1,3.1,0.5
		c1.1,0.5,2,1.4,2.6,2.5c1.6,3.4-1.7,8.6-4.4,10.5c-0.9,0.7-2,1.2-3,1.7c-0.9,0.4-1.7,0.7-2.6,1c-1.8,0.7-3.5,1.5-5.2,2.4
		c-1.5,0.8-3,1.8-4.3,3c-1.2,1.1-2.2,2.4-2.9,3.9c-0.7,1.6-1.1,3.3-1.1,5c0,1.4,0.2,2.9,0.7,4.2c0.5,1.2,1.2,2.4,2.1,3.4
		c0.9,1,2.1,1.7,3.3,2.2C7,95,8,95.2,9,95.3c0.5,0.1,1,0.1,1.4,0.1c0.6,0,1.3,0,1.9-0.1c0.9-0.1,1.8-0.2,2.7-0.5
		c1.3-0.4,2.5-0.9,3.6-1.6c1.1-0.6,2.1-1.4,3-2.2c0.9-0.8,1.9-1.6,2.8-2.3c0,0.5,0,1,0.2,1.5c0.2,0.7,0.5,1.4,0.9,2
		c0.4,0.6,0.8,1.1,1.2,1.6c0.3,0.3,0.6,0.6,1,0.8c0.4,0.3,0.9,0.6,1.4,0.7h8.7L36.5,94.6z M22.1,87.5c-0.7,0.5-1.5,1-2.3,1.5
		c-0.8,0.4-1.6,0.8-2.4,1c-0.8,0.2-1.7,0.4-2.6,0.4c-0.9,0-1.7-0.2-2.5-0.6c-0.8-0.4-1.5-1-2.1-1.7c-0.6-0.7-1.1-1.6-1.5-2.4
		c-0.4-1-0.6-2-0.5-3c0-1,0.3-2,0.7-2.8c0.8-1.5,2-2.7,3.5-3.5c4.8-3.1,6.6-3.6,9.3-5.8c1-0.9,2-1.9,2.9-3v18.3
		C23.7,86.3,22.9,86.9,22.1,87.5z"/>
	<path class="st0" d="M229.5,64.2c-1-2.5-2.6-4.8-4.5-6.7c-2-1.9-4.3-3.5-6.8-4.5c-2.7-1.1-5.7-1.7-8.6-1.7c-3,0-6,0.5-8.7,1.7
		c-2.6,1.1-4.9,2.8-6.9,4.8c-2,2.1-3.5,4.6-4.5,7.2c-1.1,2.8-1.7,5.8-1.7,8.8c0,2.9,0.5,5.8,1.6,8.5c2.1,5.2,6.1,9.4,11.3,11.6
		c1.4,0.6,2.8,1.1,4.3,1.4c1.5,0.3,2.9,0.4,4.4,0.4c1.5,0,2.9-0.1,4.4-0.4c1.5-0.3,2.9-0.8,4.2-1.4c2.6-1.2,4.9-2.9,6.9-5
		c2-2.2,3.5-4.7,4.6-7.5c1.1-2.9,1.6-6,1.6-9.1C231,69.6,230.5,66.8,229.5,64.2z M221.1,82.9c-0.5,1.8-1.3,3.5-2.3,5.1
		c-0.9,1.4-2.1,2.6-3.5,3.5c-1.3,0.9-2.8,1.3-4.4,1.3c-2.1,0-4.2-0.6-6-1.8c-1.8-1.3-3.3-2.9-4.4-4.8c-1.3-2.2-2.2-4.6-2.7-7.2
		c-0.6-2.9-0.9-5.8-0.9-8.8c0-2.1,0.3-4.1,0.9-6.1c0.5-1.8,1.3-3.5,2.4-5c0.9-1.3,2.1-2.5,3.4-3.4c1.2-0.8,2.6-1.2,4-1.2
		c2.4-0.1,4.7,0.6,6.7,1.8c1.9,1.2,3.4,2.8,4.5,4.8c1.2,2.2,2,4.6,2.4,7.1c0.5,2.9,0.8,5.8,0.7,8.7
		C221.9,78.9,221.6,80.9,221.1,82.9z"/>
	<path class="st1" d="M115.5,42.9c0,0.6-0.1,1.3-0.4,1.9c-0.7,1.8-2.4,2.9-4.3,2.9c-0.6,0-1.2-0.1-1.8-0.4c-0.6-0.2-1.1-0.6-1.5-1
		c-0.9-0.9-1.4-2.1-1.3-3.4c0-0.6,0.1-1.3,0.4-1.9c0.2-0.6,0.6-1.1,1-1.5c0.4-0.4,0.9-0.8,1.5-1c0.6-0.2,1.2-0.4,1.8-0.4
		c0.6,0,1.2,0.1,1.8,0.4c0.6,0.2,1,0.6,1.5,1c0.4,0.4,0.8,1,1,1.5C115.4,41.7,115.5,42.3,115.5,42.9z"/>
	<path class="st1" d="M110.7,61.9l-0.2-0.2l0,0C110.6,61.8,110.6,61.8,110.7,61.9z"/>
	<polygon class="st0" points="322.6,51.4 322.5,95.4 314.7,95.4 314.9,53.8 320.5,51.4 	"/>
	<path class="st1" d="M322.1,39.6c-0.4-0.4-0.9-0.8-1.5-1c-0.6-0.3-1.2-0.4-1.8-0.4c-0.6,0-1.2,0.1-1.8,0.4c-0.6,0.2-1.1,0.6-1.5,1
		c-0.4,0.4-0.8,1-1,1.5c-0.2,0.6-0.4,1.2-0.4,1.9c0,0.6,0.1,1.3,0.4,1.9c0.2,0.6,0.6,1.1,1,1.5c0.4,0.5,0.9,0.8,1.5,1.1
		c1.2,0.5,2.5,0.5,3.6,0c1.1-0.5,2-1.4,2.5-2.6c0.2-0.6,0.4-1.2,0.4-1.9c0-0.6-0.1-1.3-0.4-1.9C322.9,40.6,322.5,40,322.1,39.6z"/>
	<polygon class="st0" points="308.8,95.4 308.8,95.5 301,95.5 300.8,95.5 300.8,95.4 	"/>
	<polygon class="st0" points="328.3,87.4 328.2,90.7 328.2,87.4 	"/>
	<polygon class="st0" points="149.3,92.7 149.3,95.3 149.3,92.7 	"/>
	<path class="st0" d="M363.7,87.3v8.2h-8.2c0-2.7,0-5.4,0-8.2l0.1-21.2c0-1.2-0.2-2.3-0.6-3.4c-0.1-0.3-0.3-0.7-0.4-1
		c-0.3-0.7-0.7-1.3-1.2-1.9c-0.6-0.8-1.4-1.5-2.4-2c-0.9-0.5-1.8-0.7-2.8-0.7c-1.1,0-2.2,0.2-3.2,0.5c-1.1,0.4-2.2,0.8-3.2,1.4
		c-1.1,0.5-2.1,1.2-3,2c-0.8,0.7-1.6,1.4-2.2,2.3v32.2h-8.2V53.7l5.9-2.4h2.4v6.4c1-0.9,2.1-1.8,3.2-2.6c1.2-0.8,2.5-1.6,3.8-2.3
		c2.4-1,5-1.5,7.6-1.5h1.1c0.8,0,1.6,0.1,2.4,0.3c0.4,0.1,0.9,0.2,1.3,0.4c1.3,0.5,2.4,1.1,3.5,2c1.1,0.8,2,1.8,2.7,2.9
		c0.4,0.7,0.8,1.4,1.1,2.1c0.2,0.5,0.3,1,0.4,1.5C363.7,69.4,363.7,78.3,363.7,87.3z"/>
	<path class="st0" d="M355.6,87.3c0,2.7,0,5.4,0,8.2V87.3z"/>
	<polygon class="st0" points="308.8,95.4 308.8,95.5 301,95.5 301,95.4 	"/>
	<polygon class="st0" points="175.6,68 175.5,73 175.5,68 	"/>
	<path class="st0" d="M183.7,65.1v30.3h-8.2V66.2c0-1.2-0.2-2.3-0.6-3.4c-0.3-1-0.9-2-1.6-2.8c-0.6-0.8-1.4-1.5-2.3-2
		c-0.9-0.5-1.8-0.7-2.8-0.7c-1.2,0-2.3,0.2-3.4,0.5c-1.1,0.3-2.3,0.7-3.3,1.3c-1,0.5-2,1.2-2.9,2c-0.8,0.7-1.5,1.6-2.2,2.5
		c0,10.7,0,21.3,0,31.9h-8.1c0.1-16.2,0.1-28,0.1-29.3c0-0.9-0.1-1.7-0.3-2.6c-0.1-0.3-0.2-0.6-0.3-0.8s-0.3-0.7-0.4-1
		c-0.3-0.7-0.7-1.3-1.2-1.9c-0.6-0.8-1.4-1.5-2.3-1.9c-0.9-0.5-1.9-0.7-2.9-0.7c-1.1,0-2.2,0.2-3.2,0.5c-1.1,0.3-2.2,0.8-3.3,1.3
		c-1.1,0.5-2.1,1.2-3,1.9c-0.8,0.7-1.6,1.4-2.2,2.3v32.2h-8.2V53.7l5.9-2.4h2.3v6.5c1-0.9,2.1-1.8,3.2-2.6c1.2-0.9,2.5-1.6,3.8-2.3
		c2.4-1,5-1.5,7.7-1.5h1c0.8,0,1.6,0.1,2.4,0.3c0.4,0.1,0.9,0.2,1.3,0.4c1.2,0.4,2.4,1.1,3.4,1.9c1.1,0.8,2,1.8,2.7,2.9
		c0.4,0.6,0.8,1.3,1,2.1c0.2,0.5,0.3,1,0.4,1.5c0.1-0.1,0.1-0.2,0.2-0.3c0.7-1.2,1.6-2.3,2.7-3.3c1.2-1.1,2.6-2.1,4-2.9
		c1.5-0.8,3-1.5,4.6-1.9c1.5-0.4,3.1-0.7,4.8-0.7c1.5,0,3,0.4,4.4,1.1c1.4,0.7,2.6,1.7,3.5,2.9c1,1.3,1.9,2.7,2.4,4.3
		C183.5,61.5,183.7,63.3,183.7,65.1z"/>
	<polygon class="st0" points="115.1,51.4 115,72.2 115,95.4 106.8,95.4 106.8,53.7 112.8,51.4 	"/>
	<path class="st0" d="M73,30.8l-5.8,2.4c0,7.3,0,14.7-0.1,22.1L67,55.2c-1.2-1.2-2.5-2.1-4-2.8c-1.1-0.5-2.3-0.8-3.5-1
		c-0.6-0.1-1.2-0.1-1.8-0.1c-2.9,0-5.8,0.6-8.4,1.9c-2.6,1.2-4.9,3-6.9,5.1c-2,2.1-3.6,4.6-4.7,7.2c-1.1,2.7-1.7,5.5-1.8,8.4
		c0,2.8,0.4,5.6,1.3,8.3c0.8,2.5,2.1,4.8,3.7,6.9c1.5,1.9,3.4,3.5,5.5,4.7c1.6,0.9,3.3,1.4,5.1,1.7c0.6,0.1,1.1,0.1,1.7,0.1
		c0.7,0,1.3,0,2-0.1c0.5-0.1,1-0.1,1.5-0.2c1.2-0.2,2.4-0.6,3.6-1c1.2-0.4,2.3-0.9,3.4-1.6c0,0,1.1-0.6,1.9-1.2
		c0.4-0.3,0.8-0.7,1.1-1.1l0,0v5.1H75l0.1-12.9V30.8L73,30.8z M66.9,86.7c-0.5,0.6-1.1,1.1-1.8,1.6c-0.7,0.5-1.4,1-2.2,1.4
		c-0.8,0.4-1.6,0.8-2.5,1c-0.8,0.2-1.7,0.3-2.6,0.3c-1.8,0-3.5-0.6-5-1.6c-1.6-1.1-3-2.5-4.1-4.2c-1.2-1.9-2.1-4-2.7-6.2
		c-0.7-2.5-1-5-1-7.6c0-2.3,0.3-4.7,1-6.9c0.5-1.9,1.4-3.8,2.5-5.4c1-1.4,2.3-2.6,3.7-3.5c0.7-0.4,1.4-0.7,2.2-0.9
		c1.2-0.3,2.4-0.4,3.6-0.2c0.8,0.1,1.7,0.4,2.4,0.7c0.4,0.2,0.8,0.4,1.2,0.7c0.7,0.5,1.4,1,2,1.7c0.9,1.1,1.7,2.3,2.3,3.5
		c0.3,0.8,0.6,1.6,0.7,2.5L66.9,86.7z"/>
	<path class="st0" d="M66.9,90.3v5.1V90.3L66.9,90.3z"/>
	<path class="st1" d="M75.1,30.8L75.1,30.8z"/>
	<path class="st0" d="M75.1,82.5v12.9H75L75.1,82.5z"/>
	<path class="st2" d="M11.3,21.2c-0.3,0.3-0.7,0.5-1.1,0.7c-0.4,0.2-0.8,0.4-1.2,0.5c-0.4,0.1-0.9,0.3-1.3,0.4
		C7.2,22.9,6.8,23,6.3,23c-0.9,0-1.7-0.2-2.5-0.6c-0.8-0.4-1.4-1-2-1.6c-0.6-0.7-1.1-1.6-1.4-2.5C0.2,17.3,0,16.3,0,15.3
		c0-1,0.2-2.1,0.6-3c0.4-0.9,1-1.8,1.7-2.5C3,9.1,3.9,8.5,4.8,8c1-0.4,2-0.7,3.1-0.7c0.7,0,1.3,0.1,1.9,0.4c0.6,0.3,1.1,0.6,1.5,1
		V0.8L13.4,0h0.9v22.6h-3L11.3,21.2z M11.3,12.4c0-0.6-0.1-1.1-0.3-1.6c-0.2-0.5-0.5-0.9-0.9-1.2C9.8,9.2,9.4,9,8.9,8.8
		c-1-0.4-2.1-0.4-3,0.1c-0.5,0.3-1,0.7-1.3,1.2c-0.4,0.6-0.7,1.2-0.9,1.9c-0.2,0.8-0.3,1.6-0.3,2.4c0,0.9,0.1,1.8,0.4,2.7
		c0.2,0.8,0.6,1.5,1,2.2c0.4,0.6,0.9,1.1,1.5,1.5C7,21.3,8,21.5,8.9,21.2c0.3-0.1,0.6-0.2,0.9-0.3c0.3-0.1,0.5-0.3,0.8-0.5
		c0.2-0.2,0.5-0.4,0.6-0.6L11.3,12.4z"/>
	<path class="st2" d="M25.8,23c-1,0-1.9-0.2-2.8-0.6c-1.8-0.7-3.2-2.1-3.9-3.9c-0.4-0.9-0.6-1.8-0.6-2.8c0-1.1,0.1-2.3,0.5-3.3
		c0.3-1,0.8-1.9,1.5-2.7C21.1,9,21.9,8.4,22.8,8c0.9-0.4,2-0.6,3-0.6c1.8,0,3.5,0.7,4.8,1.9c0.6,0.6,1.1,1.2,1.4,2
		c0.3,0.8,0.5,1.6,0.5,2.4H21.4c0,0.9,0.1,1.9,0.4,2.8c0.2,0.8,0.6,1.6,1.1,2.2c0.4,0.6,1,1.1,1.7,1.5c0.7,0.4,1.4,0.5,2.1,0.5
		c0.6,0,1.3-0.1,1.9-0.3c0.6-0.2,1.1-0.5,1.6-0.8c0.5-0.3,0.9-0.7,1.2-1.2c0.3-0.4,0.6-0.9,0.7-1.4l0.9,0.4c-0.2,0.8-0.5,1.5-1,2.2
		c-0.5,0.7-1,1.3-1.7,1.8c-0.6,0.5-1.3,0.9-2.1,1.2C27.4,22.8,26.6,23,25.8,23z M28.8,12.5c0-0.5-0.1-1.1-0.3-1.6
		c-0.2-0.5-0.5-0.9-0.8-1.3c-0.4-0.4-0.8-0.6-1.2-0.8c-0.5-0.2-1-0.3-1.5-0.3c-0.4,0-0.9,0.1-1.3,0.3c-0.4,0.2-0.8,0.5-1.1,0.8
		c-0.3,0.4-0.6,0.8-0.8,1.3c-0.2,0.5-0.3,1-0.4,1.6L28.8,12.5z"/>
	<path class="st2" d="M37.8,7.6L43.1,19l5.1-11.3h1.3l-6.8,15.2h-1L34.7,7.6H37.8z"/>
	<path class="st2" d="M58.8,23c-1,0-2-0.2-2.9-0.6c-1.8-0.7-3.2-2.1-3.9-3.9c-0.4-0.9-0.6-1.8-0.6-2.8c0-1.1,0.2-2.3,0.5-3.3
		c0.3-1,0.8-1.9,1.5-2.6C54.1,9,54.9,8.4,55.8,8c0.9-0.4,2-0.6,3-0.6c1.8,0,3.5,0.7,4.8,1.9c0.6,0.6,1.1,1.2,1.4,2
		c0.3,0.8,0.5,1.6,0.5,2.4H54.3c0,0.9,0.1,1.9,0.4,2.8c0.2,0.8,0.6,1.6,1.1,2.2c0.4,0.6,1,1.1,1.7,1.5c0.7,0.4,1.4,0.5,2.1,0.5
		c0.6,0,1.3-0.1,1.9-0.3c0.6-0.2,1.1-0.5,1.6-0.8c0.5-0.3,0.9-0.7,1.2-1.2c0.3-0.4,0.6-0.9,0.8-1.4l0.9,0.4c-0.2,0.8-0.5,1.5-1,2.2
		c-0.5,0.7-1,1.3-1.7,1.8c-0.6,0.5-1.3,0.9-2.1,1.2C60.4,22.8,59.6,23,58.8,23z M61.8,12.5c0-0.5-0.1-1.1-0.3-1.6
		c-0.2-0.5-0.5-0.9-0.8-1.3c-0.4-0.4-0.8-0.6-1.2-0.8c-0.5-0.2-1-0.3-1.5-0.3c-0.4,0-0.9,0.1-1.3,0.3c-0.4,0.2-0.8,0.5-1.1,0.8
		c-0.3,0.4-0.6,0.8-0.8,1.3c-0.2,0.5-0.3,1-0.4,1.6L61.8,12.5z"/>
	<path class="st2" d="M73.1,22.6h-3V0.8L72.2,0h0.9V22.6z"/>
	<path class="st2" d="M85.2,23c-1.1,0-2.2-0.2-3.2-0.6c-0.9-0.4-1.8-0.9-2.5-1.6c-0.7-0.7-1.3-1.5-1.7-2.4c-0.4-0.9-0.6-2-0.6-3
		c0-1.1,0.2-2.1,0.6-3.1c0.4-0.9,0.9-1.8,1.7-2.5C80.3,9,81.1,8.4,82.1,8c1-0.4,2.1-0.6,3.2-0.6c1.1,0,2.2,0.2,3.2,0.6
		c0.9,0.4,1.8,0.9,2.5,1.6c0.7,0.7,1.3,1.5,1.7,2.3c0.4,0.9,0.6,1.9,0.6,2.9c0,1.1-0.2,2.2-0.6,3.2c-0.4,1-0.9,1.9-1.7,2.6
		c-0.7,0.8-1.6,1.4-2.5,1.8C87.4,22.8,86.3,23,85.2,23z M85.8,21.9c0.6,0,1.1-0.2,1.6-0.5c0.5-0.3,0.9-0.7,1.3-1.2
		c0.4-0.5,0.6-1.1,0.8-1.8c0.2-0.7,0.3-1.4,0.3-2.1c0-1-0.1-2-0.3-3c-0.2-0.9-0.5-1.7-0.9-2.5c-0.4-0.7-0.9-1.3-1.6-1.7
		c-0.7-0.4-1.6-0.6-2.5-0.6c-0.5,0-1,0.2-1.4,0.4c-0.5,0.3-0.9,0.7-1.2,1.2c-0.4,0.5-0.7,1.1-0.9,1.7c-0.2,0.7-0.4,1.4-0.3,2.2
		c0,1,0.1,2.1,0.3,3c0.2,0.9,0.5,1.7,1,2.5c0.4,0.7,1,1.3,1.6,1.7C84.3,21.7,85.1,21.9,85.8,21.9L85.8,21.9z"/>
	<path class="st2" d="M99.5,7.4h0.8v3.4c0.3-0.4,0.6-0.8,1-1.2c0.4-0.4,0.8-0.8,1.2-1.1c0.5-0.3,0.9-0.6,1.5-0.8
		c0.6-0.2,1.2-0.3,1.8-0.3c0.8,0,1.7,0.2,2.4,0.6c0.7,0.4,1.3,0.9,1.8,1.5c0.5,0.7,0.9,1.4,1.2,2.2c0.3,0.9,0.4,1.8,0.4,2.7
		c0,1.2-0.2,2.3-0.5,3.4c-0.3,1-0.8,1.9-1.5,2.7c-0.6,0.8-1.4,1.4-2.3,1.8c-0.9,0.4-2,0.7-3,0.6c-0.4,0-0.8,0-1.2-0.1
		c-0.3,0-0.7-0.1-1-0.2c-0.3-0.1-0.6-0.2-0.9-0.3c-0.3-0.1-0.6-0.3-0.9-0.5V29h-3V8.2L99.5,7.4z M100.4,18.6c0,0.4,0.1,0.9,0.3,1.3
		c0.2,0.4,0.5,0.7,0.8,1c0.4,0.3,0.8,0.5,1.3,0.7c0.5,0.2,1.1,0.3,1.6,0.3c0.6,0,1.1-0.1,1.6-0.4c0.5-0.3,1-0.7,1.3-1.2
		c0.4-0.6,0.7-1.2,0.9-1.9c0.2-0.8,0.3-1.6,0.3-2.4c0-1-0.1-1.9-0.3-2.9c-0.2-0.7-0.4-1.4-0.8-2.1c-0.3-0.5-0.7-0.9-1.2-1.2
		c-0.5-0.3-1-0.4-1.6-0.4c-0.4,0-0.8,0.1-1.2,0.2c-0.4,0.1-0.8,0.3-1.1,0.5c-0.4,0.2-0.7,0.5-1,0.8c-0.3,0.3-0.6,0.6-0.8,0.9
		L100.4,18.6z"/>
	<path class="st2" d="M122.3,23c-1,0-2-0.2-2.9-0.6c-1.8-0.7-3.2-2.1-3.9-3.9c-0.4-0.9-0.6-1.8-0.6-2.8c0-1.1,0.2-2.3,0.5-3.3
		c0.3-1,0.9-1.9,1.5-2.7c0.6-0.7,1.4-1.3,2.3-1.7c0.9-0.4,2-0.6,3-0.6c1.8,0,3.5,0.7,4.8,1.9c0.6,0.6,1.1,1.2,1.4,2
		c0.3,0.8,0.5,1.6,0.5,2.4h-11.2c0,0.9,0.1,1.9,0.4,2.8c0.2,0.8,0.6,1.6,1.1,2.2c0.5,0.6,1,1.1,1.7,1.5c0.7,0.4,1.4,0.5,2.1,0.5
		c0.6,0,1.3-0.1,1.9-0.3c0.6-0.2,1.1-0.5,1.6-0.8c0.5-0.3,0.9-0.7,1.2-1.2c0.3-0.4,0.6-0.9,0.7-1.4l0.9,0.4c-0.2,0.8-0.5,1.5-1,2.2
		c-0.5,0.7-1,1.3-1.7,1.8c-0.6,0.5-1.3,0.9-2.1,1.2C123.9,22.8,123.1,23,122.3,23z M125.3,12.5c0-0.5-0.1-1.1-0.3-1.6
		c-0.2-0.5-0.5-0.9-0.8-1.3c-0.4-0.4-0.8-0.6-1.2-0.8c-0.5-0.2-1-0.3-1.5-0.3c-0.4,0-0.9,0.1-1.3,0.3c-0.4,0.2-0.8,0.5-1.1,0.8
		c-0.3,0.4-0.6,0.8-0.8,1.3c-0.2,0.5-0.3,1-0.4,1.6L125.3,12.5z"/>
	<path class="st2" d="M143.9,21.2c-0.4,0.3-0.7,0.5-1.1,0.7c-0.4,0.2-0.8,0.4-1.2,0.5c-0.4,0.2-0.9,0.3-1.3,0.4
		c-0.4,0.1-0.9,0.1-1.3,0.1c-0.9,0-1.7-0.2-2.5-0.6c-0.8-0.4-1.4-1-2-1.6c-0.6-0.7-1.1-1.5-1.4-2.4c-0.3-0.9-0.5-1.9-0.5-2.9
		c0-1,0.2-2.1,0.6-3c0.4-0.9,1-1.8,1.7-2.6c0.7-0.8,1.6-1.4,2.5-1.8c1-0.4,2-0.7,3.1-0.7c0.7,0,1.3,0.1,1.9,0.4
		c0.6,0.3,1.1,0.6,1.5,1V0.8L146,0h0.9v22.6h-3L143.9,21.2z M143.9,12.4c0-0.6-0.1-1.1-0.3-1.6c-0.2-0.5-0.5-0.9-0.9-1.2
		c-0.3-0.3-0.7-0.6-1.2-0.8c-0.4-0.2-0.9-0.3-1.3-0.3c-0.6,0-1.2,0.1-1.7,0.4c-0.5,0.3-1,0.7-1.4,1.2c-0.4,0.6-0.7,1.2-0.9,1.9
		c-0.2,0.8-0.4,1.6-0.3,2.4c0,0.9,0.1,1.8,0.4,2.7c0.2,0.8,0.6,1.5,1,2.2c0.4,0.6,0.9,1.1,1.5,1.5c0.5,0.4,1.2,0.5,1.8,0.5
		c0.3,0,0.6,0,0.9-0.1c0.3-0.1,0.6-0.2,0.9-0.3c0.3-0.1,0.5-0.3,0.8-0.5c0.2-0.2,0.5-0.4,0.7-0.6L143.9,12.4z"/>
	<path class="st2" d="M158.3,0.8l2.1-0.8h0.9v10.5c0.3-0.4,0.6-0.9,1-1.2c0.4-0.4,0.8-0.7,1.3-1c0.5-0.3,1-0.5,1.5-0.7
		c0.5-0.2,0.9-0.2,1.4-0.2c0.8,0,1.7,0.2,2.4,0.5c0.7,0.3,1.4,0.8,1.9,1.4c0.5,0.6,1,1.3,1.2,2.1c0.3,0.8,0.5,1.7,0.4,2.6
		c0,1.2-0.2,2.4-0.6,3.5c-0.4,1-1,2-1.8,2.8c-0.8,0.8-1.7,1.5-2.7,1.9c-1,0.5-2.2,0.7-3.3,0.7c-1.1,0-2.1-0.1-3.1-0.4
		c-0.9-0.3-1.8-0.7-2.6-1.3L158.3,0.8z M161.3,20.2c0.2,0.2,0.4,0.4,0.6,0.5c0.2,0.2,0.5,0.4,0.7,0.5c0.3,0.2,0.6,0.3,0.9,0.4
		c0.4,0.1,0.8,0.1,1.1,0.1c0.7,0,1.3-0.2,1.9-0.5c0.6-0.4,1.1-0.8,1.4-1.4c0.4-0.7,0.7-1.4,0.9-2.1c0.2-0.9,0.3-1.8,0.3-2.7
		c0-0.7-0.1-1.4-0.3-2.1c-0.2-0.6-0.5-1.2-0.9-1.7c-0.4-0.5-0.9-0.9-1.4-1.1c-0.5-0.3-1.1-0.4-1.7-0.4c-0.3,0-0.7,0.1-1,0.1
		c-0.3,0.1-0.7,0.2-1,0.4c-0.3,0.2-0.6,0.4-0.9,0.6c-0.3,0.2-0.5,0.4-0.7,0.7L161.3,20.2z"/>
	<path class="st2" d="M176.1,26.2c0.1,0.1,0.3,0.1,0.4,0.2c0.2,0.1,0.3,0.2,0.5,0.2c0.2,0.1,0.4,0.1,0.6,0.2
		c0.2,0.1,0.5,0.1,0.7,0.1c0.3,0,0.6-0.1,0.9-0.3c0.3-0.2,0.5-0.4,0.7-0.7c0.2-0.3,0.4-0.6,0.6-0.9c0.2-0.3,0.3-0.6,0.4-0.9l1-2.3
		l-7.7-14.3h3.4l5.8,10.8l4.7-10.8h1.6L182,25.3c-0.3,0.7-0.7,1.3-1.1,1.9c-0.4,0.5-0.8,0.9-1.3,1.3c-0.4,0.3-0.9,0.6-1.5,0.8
		c-0.5,0.2-0.9,0.3-1.4,0.3c-0.3,0-0.7-0.1-1-0.2c-0.3-0.1-0.6-0.2-0.8-0.4L176.1,26.2z"/>
</g>
</svg>
